<svg version="1.1" viewBox="0.0 0.0 960.0 540.0" fill="none" stroke="none" stroke-linecap="square" stroke-miterlimit="10" xmlns:xlink="http://www.w3.org/1999/xlink" xmlns="http://www.w3.org/2000/svg"><clipPath id="p.0"><path d="m0 0l960.0 0l0 540.0l-960.0 0l0 -540.0z" clip-rule="nonzero"/></clipPath><g clip-path="url(#p.0)"><path fill="#ffffff" d="m0 0l960.0 0l0 540.0l-960.0 0z" fill-rule="evenodd"/><path fill="#000000" fill-opacity="0.0" d="m226.77165 37.795277l689.7638 0l0 462.99213l-689.7638 0z" fill-rule="evenodd"/><path stroke="#000000" stroke-width="1.0" stroke-linejoin="round" stroke-linecap="butt" d="m226.77165 37.795277l689.7638 0l0 462.99213l-689.7638 0z" fill-rule="evenodd"/><path fill="#00ff00" d="m385.46982 294.97113l99.24408 0l0 135.52756l-99.24408 0z" fill-rule="evenodd"/><path stroke="#000000" stroke-width="1.0" stroke-linejoin="round" stroke-linecap="butt" d="m385.46982 294.97113l99.24408 0l0 135.52756l-99.24408 0z" fill-rule="evenodd"/><path fill="#000000" fill-opacity="0.0" d="m37.795277 37.795277l151.1811 0l0 151.1811l-151.1811 0z" fill-rule="evenodd"/><path stroke="#000000" stroke-width="1.0" stroke-linejoin="round" stroke-linecap="butt" d="m37.795277 37.795277l151.1811 0l0 151.1811l-151.1811 0z" fill-rule="evenodd"/><path fill="#000000" fill-opacity="0.0" d="m37.795277 226.77165l151.1811 0l0 274.01575l-151.1811 0z" fill-rule="evenodd"/><path stroke="#000000" stroke-width="1.0" stroke-linejoin="round" stroke-linecap="butt" d="m37.795277 226.77165l151.1811 0l0 274.01575l-151.1811 0z" fill-rule="evenodd"/><path fill="#00ff00" d="m572.22046 294.97113l49.102356 0l0 135.52756l-49.102356 0z" fill-rule="evenodd"/><path stroke="#000000" stroke-width="1.0" stroke-linejoin="round" stroke-linecap="butt" d="m572.22046 294.97113l49.102356 0l0 135.52756l-49.102356 0z" fill-rule="evenodd"/><path fill="#9900ff" d="m286.2257 407.01837l99.24411 0l0 45.88977l-99.24411 0z" fill-rule="evenodd"/><path stroke="#000000" stroke-width="1.0" stroke-linejoin="round" stroke-linecap="butt" d="m286.2257 407.01837l99.24411 0l0 45.88977l-99.24411 0z" fill-rule="evenodd"/><path fill="#9900ff" d="m484.7139 407.01837l49.102386 0l0 45.88977l-49.102386 0z" fill-rule="evenodd"/><path stroke="#000000" stroke-width="1.0" stroke-linejoin="round" stroke-linecap="butt" d="m484.7139 407.01837l49.102386 0l0 45.88977l-49.102386 0z" fill-rule="evenodd"/><path fill="#eeff41" d="m621.3228 159.44357l237.98425 0l0 271.0551l-237.98425 0z" fill-rule="evenodd"/><path stroke="#000000" stroke-width="1.0" stroke-linejoin="round" stroke-linecap="butt" d="m621.3228 159.44357l237.98425 0l0 271.0551l-237.98425 0z" fill-rule="evenodd"/><path fill="#dd7e6b" d="m533.8163 430.4987l325.4803 0l0 22.393707l-325.4803 0z" fill-rule="evenodd"/><path stroke="#000000" stroke-width="1.0" stroke-linejoin="round" stroke-linecap="butt" d="m533.8163 430.4987l325.4803 0l0 22.393707l-325.4803 0z" fill-rule="evenodd"/><path fill="#dd7e6b" d="m385.46982 430.4987l99.24408 0l0 22.393707l-99.24408 0z" fill-rule="evenodd"/><path stroke="#000000" stroke-width="1.0" stroke-linejoin="round" stroke-linecap="butt" d="m385.46982 430.4987l99.24408 0l0 22.393707l-99.24408 0z" fill-rule="evenodd"/><path fill="#d9d9d9" d="m533.82153 391.03412l38.393677 0l0 39.46457l-38.393677 0z" fill-rule="evenodd"/><path stroke="#000000" stroke-width="1.0" stroke-linejoin="round" stroke-linecap="butt" stroke-dasharray="4.0,3.0" d="m533.82153 391.03412l38.393677 0l0 39.46457l-38.393677 0z" fill-rule="evenodd"/><path fill="#00ffff" d="m94.18898 93.65354l38.393692 0l0 39.46456l-38.393692 0z" fill-rule="evenodd"/><path stroke="#000000" stroke-width="1.0" stroke-linejoin="round" stroke-linecap="butt" d="m94.18898 93.65354l38.393692 0l0 39.46456l-38.393692 0z" fill-rule="evenodd"/><path fill="#000000" fill-opacity="0.0" d="m132.58267 113.385826c210.22049 0 420.44095 138.81891 420.44095 277.6378" fill-rule="evenodd"/><path stroke="#666666" stroke-width="3.0" stroke-linejoin="round" stroke-linecap="butt" d="m132.58267 113.385826c105.110245 0 210.22049 34.70472 289.05316 86.76182c39.41632 26.028534 72.263275 56.395172 95.256134 88.93085c11.49646 16.267853 20.529358 33.07794 26.688171 50.15918c3.0794067 8.540619 5.4402466 17.149017 7.031311 25.79129c0.3977661 2.1605835 0.7473755 4.3232727 1.0480957 6.4875793c0.037597656 0.2704773 0.074401855 0.54107666 0.11047363 0.811676l0.09552002 0.73269653" fill-rule="evenodd"/><path fill="#666666" stroke="#666666" stroke-width="3.0" stroke-linecap="butt" d="m546.92065 373.3797l5.820801 13.267303l4.069031 -13.904877z" fill-rule="evenodd"/><path fill="#e69138" d="m53.59055 245.99213l116.31497 0l0 15.968506l-116.31497 0z" fill-rule="evenodd"/><path stroke="#000000" stroke-width="1.0" stroke-linejoin="round" stroke-linecap="butt" d="m53.59055 245.99213l116.31497 0l0 15.968506l-116.31497 0z" fill-rule="evenodd"/><path fill="#d9d9d9" d="m484.7139 391.03412l49.102386 0l0 15.968506l-49.102386 0z" fill-rule="evenodd"/><path stroke="#000000" stroke-width="1.0" stroke-linejoin="round" stroke-linecap="butt" stroke-dasharray="4.0,3.0" d="m484.7139 391.03412l49.102386 0l0 15.968506l-49.102386 0z" fill-rule="evenodd"/><path fill="#d9d9d9" d="m318.25723 391.03412l67.212585 0l0 15.968506l-67.212585 0z" fill-rule="evenodd"/><path stroke="#000000" stroke-width="1.0" stroke-linejoin="round" stroke-linecap="butt" stroke-dasharray="4.0,3.0" d="m318.25723 391.03412l67.212585 0l0 15.968506l-67.212585 0z" fill-rule="evenodd"/><path fill="#000000" fill-opacity="0.0" d="m169.90552 253.97638c169.68503 0 339.3701 68.53543 339.3701 137.07086" fill-rule="evenodd"/><path stroke="#666666" stroke-width="3.0" stroke-linejoin="round" stroke-linecap="butt" d="m169.90552 253.97638c84.842514 0 169.68503 17.13385 233.31693 42.834656c31.815948 12.850372 58.329224 27.842499 76.88852 43.905487c9.279663 8.031494 16.5708 16.330719 21.542053 24.763794c1.2428284 2.1082764 2.3406372 4.2249146 3.288269 6.347809c0.23690796 0.5307312 0.46444702 1.0618286 0.6824951 1.5933533l3.0517578E-5 6.1035156E-5" fill-rule="evenodd"/><path fill="#666666" stroke="#666666" stroke-width="3.0" stroke-linecap="butt" d="m500.77167 374.42685l7.6141663 12.325897l2.090149 -14.336487z" fill-rule="evenodd"/><path fill="#000000" fill-opacity="0.0" d="m169.90552 253.97638c90.97638 0 181.95276 68.53543 181.95276 137.07086" fill-rule="evenodd"/><path stroke="#666666" stroke-width="3.0" stroke-linejoin="round" stroke-linecap="butt" d="m169.90552 253.97638c45.48819 0 90.97638 17.13385 125.0925 42.834656c17.058075 12.850372 31.273132 27.842499 41.223694 43.905487c4.9752502 8.031494 8.88443 16.330719 11.549744 24.763794c0.6663208 2.1082764 1.2549133 4.2249146 1.7630005 6.347809c0.06347656 0.26538086 0.12573242 0.5308533 0.18670654 0.7963867l0.12054443 0.53604126" fill-rule="evenodd"/><path fill="#666666" stroke="#666666" stroke-width="3.0" stroke-linecap="butt" d="m344.9177 373.7157l6.4492493 12.97345l3.3987732 -14.08371z" fill-rule="evenodd"/><path fill="#ff00ff" d="m81.88976 284.3071l59.71653 0l0 90.70865l-59.71653 0z" fill-rule="evenodd"/><path stroke="#000000" stroke-width="1.0" stroke-linejoin="round" stroke-linecap="butt" d="m81.88976 284.3071l59.71653 0l0 90.70865l-59.71653 0z" fill-rule="evenodd"/><path fill="#b6d7a8" d="m74.96063 397.3622l73.5748 0l0 45.88977l-73.5748 0z" fill-rule="evenodd"/><path stroke="#000000" stroke-width="1.0" stroke-linejoin="round" stroke-linecap="butt" d="m74.96063 397.3622l73.5748 0l0 45.88977l-73.5748 0z" fill-rule="evenodd"/><path fill="#000000" fill-opacity="0.0" d="m474.0 452.9239l195.30707 0l0 45.88977l-195.30707 0z" fill-rule="evenodd"/><path fill="#595959" d="m510.18674 484.9639l0 -17.1875l7.6094055 0q2.296875 0 3.484375 0.46875q1.203125 0.46875 1.921875 1.640625q0.71875 1.171875 0.71875 2.578125q0 1.828125 -1.1875 3.09375q-1.1875 1.25 -3.65625 1.59375q0.90625 0.421875 1.375 0.84375q1.0 0.921875 1.890625 2.296875l2.984375 4.671875l-2.859375 0l-2.28125 -3.578125q-0.984375 -1.546875 -1.640625 -2.359375q-0.640625 -0.828125 -1.15625 -1.15625q-0.5 -0.328125 -1.03125 -0.453125q-0.390625 -0.078125 -1.265625 -0.078125l-2.640625 0l0 7.625l-2.2656555 0zm2.2656555 -9.59375l4.890625 0q1.5625 0 2.4375 -0.328125q0.875 -0.328125 1.328125 -1.03125q0.46875 -0.703125 0.46875 -1.546875q0 -1.21875 -0.890625 -2.0q-0.875 -0.78125 -2.796875 -0.78125l-5.4375 0l0 5.6875zm23.285156 5.578125l2.171875 0.28125q-0.515625 1.90625 -1.90625 2.96875q-1.390625 1.046875 -3.5625 1.046875q-2.734375 0 -4.34375 -1.671875q-1.59375 -1.6875 -1.59375 -4.734375q0 -3.140625 1.609375 -4.875q1.625 -1.734375 4.203125 -1.734375q2.5 0 4.078125 1.703125q1.59375 1.703125 1.59375 4.78125q0 0.1875 -0.015625 0.5625l-9.28125 0q0.109375 2.046875 1.15625 3.140625q1.046875 1.09375 2.609375 1.09375q1.15625 0 1.96875 -0.609375q0.828125 -0.609375 1.3125 -1.953125zm-6.9375 -3.40625l6.953125 0q-0.140625 -1.5625 -0.796875 -2.359375q-1.0 -1.21875 -2.609375 -1.21875q-1.453125 0 -2.453125 0.984375q-0.984375 0.96875 -1.09375 2.59375zm10.910156 3.703125l2.09375 -0.328125q0.171875 1.25 0.96875 1.921875q0.8125 0.671875 2.25 0.671875q1.453125 0 2.15625 -0.59375q0.703125 -0.59375 0.703125 -1.390625q0 -0.71875 -0.625 -1.125q-0.421875 -0.28125 -2.15625 -0.71875q-2.3125 -0.578125 -3.21875 -1.0q-0.890625 -0.4375 -1.359375 -1.1875q-0.453125 -0.765625 -0.453125 -1.671875q0 -0.828125 0.375 -1.53125q0.390625 -0.71875 1.046875 -1.1875q0.484375 -0.359375 1.328125 -0.609375q0.859375 -0.265625 1.828125 -0.265625q1.46875 0 2.578125 0.421875q1.109375 0.421875 1.625 1.15625q0.53125 0.71875 0.734375 1.921875l-2.0625 0.28125q-0.140625 -0.96875 -0.8125 -1.5q-0.671875 -0.546875 -1.90625 -0.546875q-1.453125 0 -2.078125 0.484375q-0.625 0.484375 -0.625 1.125q0 0.40625 0.265625 0.734375q0.25 0.34375 0.8125 0.5625q0.3125 0.125 1.859375 0.546875q2.234375 0.59375 3.109375 0.984375q0.890625 0.375 1.390625 1.109375q0.515625 0.71875 0.515625 1.796875q0 1.046875 -0.625 1.984375q-0.609375 0.9375 -1.765625 1.453125q-1.15625 0.5 -2.625 0.5q-2.421875 0 -3.703125 -1.0q-1.265625 -1.015625 -1.625 -3.0zm12.0 0l2.09375 -0.328125q0.171875 1.25 0.96875 1.921875q0.8125 0.671875 2.25 0.671875q1.453125 0 2.15625 -0.59375q0.703125 -0.59375 0.703125 -1.390625q0 -0.71875 -0.625 -1.125q-0.421875 -0.28125 -2.15625 -0.71875q-2.3125 -0.578125 -3.21875 -1.0q-0.890625 -0.4375 -1.359375 -1.1875q-0.453125 -0.765625 -0.453125 -1.671875q0 -0.828125 0.375 -1.53125q0.390625 -0.71875 1.046875 -1.1875q0.484375 -0.359375 1.328125 -0.609375q0.859375 -0.265625 1.828125 -0.265625q1.46875 0 2.578125 0.421875q1.109375 0.421875 1.625 1.15625q0.53125 0.71875 0.734375 1.921875l-2.0625 0.28125q-0.140625 -0.96875 -0.8125 -1.5q-0.671875 -0.546875 -1.90625 -0.546875q-1.453125 0 -2.078125 0.484375q-0.625 0.484375 -0.625 1.125q0 0.40625 0.265625 0.734375q0.25 0.34375 0.8125 0.5625q0.3125 0.125 1.859375 0.546875q2.234375 0.59375 3.109375 0.984375q0.890625 0.375 1.390625 1.109375q0.515625 0.71875 0.515625 1.796875q0 1.046875 -0.625 1.984375q-0.609375 0.9375 -1.765625 1.453125q-1.15625 0.5 -2.625 0.5q-2.421875 0 -3.703125 -1.0q-1.265625 -1.015625 -1.625 -3.0zm12.0625 -2.5q0 -3.46875 1.921875 -5.125q1.609375 -1.390625 3.921875 -1.390625q2.5625 0 4.1875 1.6875q1.625 1.6875 1.625 4.640625q0 2.40625 -0.71875 3.78125q-0.71875 1.375 -2.09375 2.140625q-1.375 0.765625 -3.0 0.765625q-2.625 0 -4.234375 -1.671875q-1.609375 -1.6875 -1.609375 -4.828125zm2.171875 0q0 2.390625 1.03125 3.578125q1.046875 1.1875 2.640625 1.1875q1.5625 0 2.609375 -1.1875q1.046875 -1.203125 1.046875 -3.65625q0 -2.3125 -1.0625 -3.5q-1.046875 -1.1875 -2.59375 -1.1875q-1.59375 0 -2.640625 1.1875q-1.03125 1.1875 -1.03125 3.578125zm20.113281 6.21875l0 -1.828125q-1.453125 2.109375 -3.9375 2.109375q-1.109375 0 -2.0625 -0.421875q-0.953125 -0.421875 -1.421875 -1.0625q-0.453125 -0.640625 -0.640625 -1.5625q-0.140625 -0.625 -0.140625 -1.96875l0 -7.71875l2.109375 0l0 6.90625q0 1.65625 0.140625 2.234375q0.1875 0.828125 0.828125 1.3125q0.65625 0.46875 1.609375 0.46875q0.9375 0 1.765625 -0.484375q0.84375 -0.5 1.1875 -1.328125q0.34375 -0.84375 0.34375 -2.4375l0 -6.671875l2.109375 0l0 12.453125l-1.890625 0zm5.1757812 0l0 -12.453125l1.890625 0l0 1.890625q0.734375 -1.328125 1.34375 -1.75q0.625 -0.421875 1.359375 -0.421875q1.0625 0 2.171875 0.6875l-0.734375 1.953125q-0.765625 -0.453125 -1.546875 -0.453125q-0.6875 0 -1.25 0.421875q-0.546875 0.40625 -0.78125 1.140625q-0.34375 1.125 -0.34375 2.46875l0 6.515625l-2.109375 0zm16.132812 -4.5625l2.078125 0.265625q-0.34375 2.15625 -1.75 3.375q-1.390625 1.203125 -3.4375 1.203125q-2.546875 0 -4.109375 -1.671875q-1.546875 -1.671875 -1.546875 -4.78125q0 -2.015625 0.671875 -3.53125q0.671875 -1.515625 2.03125 -2.265625q1.359375 -0.765625 2.96875 -0.765625q2.03125 0 3.3125 1.03125q1.296875 1.03125 1.65625 2.90625l-2.046875 0.328125q-0.296875 -1.265625 -1.046875 -1.890625q-0.734375 -0.640625 -1.796875 -0.640625q-1.59375 0 -2.59375 1.15625q-0.984375 1.140625 -0.984375 3.609375q0 2.5 0.953125 3.640625q0.96875 1.140625 2.515625 1.140625q1.234375 0 2.0625 -0.765625q0.84375 -0.765625 1.0625 -2.34375zm12.40625 0.546875l2.171875 0.28125q-0.515625 1.90625 -1.90625 2.96875q-1.390625 1.046875 -3.5625 1.046875q-2.734375 0 -4.34375 -1.671875q-1.59375 -1.6875 -1.59375 -4.734375q0 -3.140625 1.609375 -4.875q1.625 -1.734375 4.203125 -1.734375q2.5 0 4.078125 1.703125q1.59375 1.703125 1.59375 4.78125q0 0.1875 -0.015625 0.5625l-9.28125 0q0.109375 2.046875 1.15625 3.140625q1.046875 1.09375 2.609375 1.09375q1.15625 0 1.96875 -0.609375q0.828125 -0.609375 1.3125 -1.953125zm-6.9375 -3.40625l6.953125 0q-0.140625 -1.5625 -0.796875 -2.359375q-1.0 -1.21875 -2.609375 -1.21875q-1.453125 0 -2.453125 0.984375q-0.984375 0.96875 -1.09375 2.59375zm10.910156 3.703125l2.09375 -0.328125q0.171875 1.25 0.96875 1.921875q0.8125 0.671875 2.25 0.671875q1.453125 0 2.15625 -0.59375q0.703125 -0.59375 0.703125 -1.390625q0 -0.71875 -0.625 -1.125q-0.421875 -0.28125 -2.15625 -0.71875q-2.3125 -0.578125 -3.21875 -1.0q-0.890625 -0.4375 -1.359375 -1.1875q-0.453125 -0.765625 -0.453125 -1.671875q0 -0.828125 0.375 -1.53125q0.390625 -0.71875 1.046875 -1.1875q0.484375 -0.359375 1.328125 -0.609375q0.859375 -0.265625 1.828125 -0.265625q1.46875 0 2.578125 0.421875q1.109375 0.421875 1.625 1.15625q0.53125 0.71875 0.734375 1.921875l-2.0625 0.28125q-0.140625 -0.96875 -0.8125 -1.5q-0.671875 -0.546875 -1.90625 -0.546875q-1.453125 0 -2.078125 0.484375q-0.625 0.484375 -0.625 1.125q0 0.40625 0.265625 0.734375q0.25 0.34375 0.8125 0.5625q0.3125 0.125 1.859375 0.546875q2.234375 0.59375 3.109375 0.984375q0.890625 0.375 1.390625 1.109375q0.515625 0.71875 0.515625 1.796875q0 1.046875 -0.625 1.984375q-0.609375 0.9375 -1.765625 1.453125q-1.15625 0.5 -2.625 0.5q-2.421875 0 -3.703125 -1.0q-1.265625 -1.015625 -1.625 -3.0z" fill-rule="nonzero"/><path fill="#d9d9d9" d="m286.2257 391.03412l32.031525 0l0 15.968506l-32.031525 0z" fill-rule="evenodd"/><path stroke="#000000" stroke-width="1.0" stroke-linejoin="round" stroke-linecap="butt" stroke-dasharray="4.0,3.0" d="m286.2257 391.03412l32.031525 0l0 15.968506l-32.031525 0z" fill-rule="evenodd"/><path fill="#ffd966" d="m95.732285 465.59842l32.031494 0l0 15.968506l-32.031494 0z" fill-rule="evenodd"/><path stroke="#000000" stroke-width="1.0" stroke-linejoin="round" stroke-linecap="butt" d="m95.732285 465.59842l32.031494 0l0 15.968506l-32.031494 0z" fill-rule="evenodd"/><path fill="#000000" fill-opacity="0.0" d="m127.76378 473.58267c39.615753 0 59.424423 -18.637787 79.23152 -37.275574c19.807083 -18.637817 39.61258 -37.275604 79.22516 -37.275604" fill-rule="evenodd"/><path stroke="#666666" stroke-width="3.0" stroke-linejoin="round" stroke-linecap="butt" d="m127.76378 473.58267c39.61577 0 59.42444 -18.637787 79.23152 -37.275574c9.903549 -9.318909 19.806702 -18.637817 32.185516 -25.626984c6.1894226 -3.4945984 12.997757 -6.4067383 20.734528 -8.445251c1.9341736 -0.50964355 3.926422 -0.9646301 5.9815063 -1.3605347c0.5137634 -0.09893799 1.0314636 -0.19421387 1.5531921 -0.28570557c0.26083374 -0.045776367 0.52267456 -0.09060669 0.785553 -0.13442993l0.04067993 -0.006591797" fill-rule="evenodd"/><path fill="#666666" stroke="#666666" stroke-width="3.0" stroke-linecap="butt" d="m268.66608 405.38742l13.1822815 -6.010895l-13.961914 -3.868805z" fill-rule="evenodd"/><path fill="#000000" fill-opacity="0.0" d="m859.30707 392.62466l0 -195.30708l45.88977 0l0 195.30708z" fill-rule="evenodd"/><path fill="#595959" d="m891.3471 324.09613l-15.15625 0l0 5.65625l-2.03125 0l0 -13.625l2.03125 0l0 5.6875l15.15625 0l0 2.28125zm-4.015625 -15.890625l0.28125 -2.171875q1.90625 0.515625 2.96875 1.90625q1.046875 1.390625 1.046875 3.5625q0 2.734375 -1.671875 4.34375q-1.6875 1.59375 -4.734375 1.59375q-3.140625 0 -4.875 -1.609375q-1.734375 -1.625 -1.734375 -4.203125q0 -2.5 1.703125 -4.078125q1.703125 -1.59375 4.78125 -1.59375q0.1875 0 0.5625 0.015625l0 9.28125q2.046875 -0.109375 3.140625 -1.15625q1.09375 -1.046875 1.09375 -2.609375q0 -1.15625 -0.609375 -1.96875q-0.609375 -0.828125 -1.953125 -1.3125zm-3.40625 6.9375l0 -6.953125q-1.5625 0.140625 -2.359375 0.796875q-1.21875 1.0 -1.21875 2.609375q0 1.453125 0.984375 2.453125q0.96875 0.984375 2.59375 1.09375zm7.421875 -11.753906l-12.453125 0l0 -1.890625l1.75 0q-0.90625 -0.59375 -1.46875 -1.5625q-0.5625 -0.96875 -0.5625 -2.21875q0 -1.375 0.578125 -2.25q0.578125 -0.890625 1.609375 -1.265625q-2.1875 -1.46875 -2.1875 -3.84375q0 -1.84375 1.03125 -2.84375q1.03125 -1.0 3.15625 -1.0l8.546875 0l0 2.109375l-7.84375 0q-1.265625 0 -1.8125 0.203125q-0.5625 0.203125 -0.90625 0.75q-0.34375 0.53125 -0.34375 1.25q0 1.3125 0.875 2.1875q0.875 0.859375 2.796875 0.859375l7.234375 0l0 2.109375l-8.09375 0q-1.40625 0 -2.109375 0.515625q-0.703125 0.515625 -0.703125 1.6875q0 0.890625 0.46875 1.65625q0.46875 0.75 1.375 1.09375q0.90625 0.34375 2.609375 0.34375l6.453125 0l0 2.109375zm4.765625 -19.992188l-17.21875 0l0 -1.921875l1.625 0q-0.953125 -0.6875 -1.421875 -1.53125q-0.484375 -0.859375 -0.484375 -2.078125q0 -1.59375 0.828125 -2.8125q0.8125 -1.21875 2.3125 -1.84375q1.5 -0.625 3.28125 -0.625q1.90625 0 3.4375 0.6875q1.53125 0.6875 2.34375 2.0q0.8125 1.296875 0.8125 2.734375q0 1.0625 -0.4375 1.90625q-0.453125 0.828125 -1.140625 1.375l6.0625 0l0 2.109375zm-10.921875 -1.921875q2.40625 0 3.5625 -0.96875q1.140625 -0.96875 1.140625 -2.359375q0 -1.40625 -1.1875 -2.40625q-1.1875 -1.0 -3.6875 -1.0q-2.375 0 -3.5625 0.984375q-1.1875 0.96875 -1.1875 2.328125q0 1.359375 1.265625 2.390625q1.25 1.03125 3.65625 1.03125zm2.4375 -10.582031l-0.328125 -2.09375q1.25 -0.171875 1.921875 -0.96875q0.671875 -0.8125 0.671875 -2.25q0 -1.453125 -0.59375 -2.15625q-0.59375 -0.703125 -1.390625 -0.703125q-0.71875 0 -1.125 0.625q-0.28125 0.421875 -0.71875 2.15625q-0.578125 2.3125 -1.0 3.21875q-0.4375 0.890625 -1.1875 1.359375q-0.765625 0.453125 -1.671875 0.453125q-0.828125 0 -1.53125 -0.375q-0.71875 -0.390625 -1.1875 -1.046875q-0.359375 -0.484375 -0.609375 -1.328125q-0.265625 -0.859375 -0.265625 -1.828125q0 -1.46875 0.421875 -2.578125q0.421875 -1.109375 1.15625 -1.625q0.71875 -0.53125 1.921875 -0.734375l0.28125 2.0625q-0.96875 0.140625 -1.5 0.8125q-0.546875 0.671875 -0.546875 1.90625q0 1.453125 0.484375 2.078125q0.484375 0.625 1.125 0.625q0.40625 0 0.734375 -0.265625q0.34375 -0.25 0.5625 -0.8125q0.125 -0.3125 0.546875 -1.859375q0.59375 -2.234375 0.984375 -3.109375q0.375 -0.890625 1.109375 -1.390625q0.71875 -0.515625 1.796875 -0.515625q1.046875 0 1.984375 0.625q0.9375 0.609375 1.453125 1.765625q0.5 1.15625 0.5 2.625q0 2.421875 -1.0 3.703125q-1.015625 1.265625 -3.0 1.625z" fill-rule="nonzero"/><path fill="#000000" fill-opacity="0.0" d="m15.732284 37.795277l195.30708 0l0 45.88976l-195.30708 0z" fill-rule="evenodd"/><path fill="#595959" d="m74.43856 64.31965l2.140625 -0.1875q0.15625 1.28125 0.703125 2.109375q0.5625 0.828125 1.734375 1.34375q1.171875 0.5 2.640625 0.5q1.296875 0 2.296875 -0.375q1.0 -0.390625 1.484375 -1.0625q0.484375 -0.6875 0.484375 -1.484375q0 -0.796875 -0.46875 -1.4062462q-0.46875 -0.609375 -1.546875 -1.015625q-0.6875 -0.265625 -3.0625 -0.828125q-2.359375 -0.578125 -3.3125 -1.078125q-1.234375 -0.640625 -1.84375 -1.59375q-0.59375 -0.96875 -0.59375 -2.140625q0 -1.3125 0.734375 -2.4375q0.75 -1.125 2.15625 -1.703125q1.421875 -0.59375 3.15625 -0.59375q1.90625 0 3.359375 0.609375q1.46875 0.609375 2.25 1.8125q0.796875 1.1875 0.84375 2.703125l-2.171875 0.171875q-0.171875 -1.640625 -1.1875 -2.46875q-1.015625 -0.828125 -3.0 -0.828125q-2.0625 0 -3.015625 0.765625q-0.9375 0.75 -0.9375 1.8125q0 0.921875 0.671875 1.515625q0.65625 0.609375 3.421875 1.234375q2.78125 0.625 3.8125 1.09375q1.5 0.6875 2.203125 1.75q0.71875 1.0625 0.71875 2.4374962q0 1.375 -0.78125 2.59375q-0.78125 1.203125 -2.25 1.890625q-1.46875 0.671875 -3.3125 0.671875q-2.328125 0 -3.90625 -0.671875q-1.578125 -0.6875 -2.484375 -2.046875q-0.890625 -1.375 -0.9375 -3.09375zm24.664062 5.515625l0 -1.828125q-1.453125 2.109375 -3.9375 2.109375q-1.109375 0 -2.0625 -0.421875q-0.953125 -0.421875 -1.421875 -1.0625q-0.453125 -0.640625 -0.640625 -1.5625q-0.140625 -0.625 -0.140625 -1.96875l0 -7.718746l2.109375 0l0 6.906246q0 1.65625 0.140625 2.234375q0.1875 0.828125 0.828125 1.3125q0.65625 0.46875 1.609375 0.46875q0.9375 0 1.765625 -0.484375q0.84375 -0.5 1.1875 -1.328125q0.34375 -0.84375 0.34375 -2.4375l0 -6.671871l2.109375 0l0 12.453121l-1.890625 0zm5.2070312 -14.749996l0 -2.4375l2.109375 0l0 2.4375l-2.109375 0zm0 14.749996l0 -12.453121l2.109375 0l0 12.453121l-2.109375 0zm8.785156 0l-4.734375 -12.453121l2.21875 0l2.671875 7.453121q0.4375 1.21875 0.796875 2.515625q0.28125 -0.984375 0.78125 -2.375l2.765625 -7.593746l2.171875 0l-4.703125 12.453121l-1.96875 0zm16.656242 -1.53125q-1.171875 0.984375 -2.2656174 1.40625q-1.078125 0.40625 -2.3125 0.40625q-2.046875 0 -3.15625 -1.0q-1.09375 -1.0 -1.09375 -2.5625q0 -0.921875 0.40625 -1.671875q0.421875 -0.75 1.09375 -1.2031212q0.671875 -0.46875 1.515625 -0.703125q0.625 -0.15625 1.875 -0.3125q2.5624924 -0.3125 3.7656174 -0.734375q0.015625 -0.421875 0.015625 -0.546875q0 -1.28125 -0.609375 -1.8125q-0.796875 -0.71875 -2.3906174 -0.71875q-1.5 0 -2.203125 0.53125q-0.703125 0.515625 -1.046875 1.84375l-2.0625 -0.28125q0.28125 -1.328125 0.921875 -2.140625q0.640625 -0.8125 1.859375 -1.25q1.21875 -0.453125 2.828125 -0.453125q1.5937424 0 2.5937424 0.375q1.0 0.375 1.46875 0.953125q0.46875 0.5625 0.65625 1.4375q0.09375 0.53125 0.09375 1.9375l0 2.8124962q0 2.9375 0.140625 3.71875q0.140625 0.78125 0.53125 1.5l-2.203125 0q-0.328125 -0.65625 -0.421875 -1.53125zm-0.171875 -4.718746q-1.15625 0.4687462 -3.4531174 0.7968712q-1.296875 0.1875 -1.84375 0.421875q-0.53125 0.234375 -0.828125 0.6875q-0.28125 0.453125 -0.28125 1.0q0 0.84375 0.625 1.40625q0.640625 0.5625 1.875 0.5625q1.21875 0 2.171875 -0.53125q0.9531174 -0.53125 1.3906174 -1.453125q0.34375 -0.71875 0.34375 -2.109375l0 -0.7812462zm5.3945312 6.249996l0 -12.453121l1.90625 0l0 1.78125q1.375 -2.0625 3.953125 -2.0625q1.125 0 2.0625 0.40625q0.953125 0.40625 1.421875 1.0625q0.46875 0.65625 0.65625 1.5625q0.125 0.578125 0.125 2.046875l0 7.656246l-2.109375 0l0 -7.578121q0 -1.28125 -0.25 -1.921875q-0.25 -0.640625 -0.875 -1.015625q-0.625 -0.390625 -1.46875 -0.390625q-1.34375 0 -2.328125 0.859375q-0.984375 0.859375 -0.984375 3.25l0 6.796871l-2.109375 0zm17.957031 -1.890625l0.3125 1.859375q-0.890625 0.203125 -1.59375 0.203125q-1.15625 0 -1.796875 -0.359375q-0.625 -0.375 -0.890625 -0.96875q-0.25 -0.59375 -0.25 -2.484375l0 -7.171871l-1.546875 0l0 -1.640625l1.546875 0l0 -3.078125l2.09375 -1.265625l0 4.34375l2.125 0l0 1.640625l-2.125 0l0 7.281246q0 0.90625 0.109375 1.171875q0.125 0.25 0.375 0.40625q0.25 0.140625 0.71875 0.140625q0.34375 0 0.921875 -0.078125z" fill-rule="nonzero"/></g></svg>